<svg viewBox="0 0 18 19" xmlns="http://www.w3.org/2000/svg"><path d="M9 .5a.9.9 0 0 1 .9.898v2.695a.898.898 0 0 1-.9.868.901.901 0 0 1-.9-.868V1.398A.897.897 0 0 1 9 .5Zm0 13.476a.901.901 0 0 1 .9.898v2.696a.898.898 0 0 1-1.252.858.898.898 0 0 1-.548-.858v-2.696a.897.897 0 0 1 .9-.899v.001Zm9-4.492a.898.898 0 0 1-.9.898h-2.7a.9.9 0 0 1-.9-.899.898.898 0 0 1 .9-.898h2.7a.901.901 0 0 1 .9.899Zm-13.5 0a.897.897 0 0 1-.9.898H.9a.901.901 0 0 1-.9-.899.898.898 0 0 1 .9-.898h2.7a.9.9 0 0 1 .9.899Zm10.864 6.352a.9.9 0 0 1-1.272 0l-1.91-1.905a.897.897 0 0 1 .638-1.528.9.9 0 0 1 .634.258l1.91 1.904a.9.9 0 0 1 0 1.272Zm-9.547-9.53a.9.9 0 0 1-1.272 0L2.638 4.404A.899.899 0 1 1 3.91 3.13l1.908 1.906a.897.897 0 0 1 0 1.27Zm-3.18 9.531a.898.898 0 0 1 0-1.27l1.909-1.907a.9.9 0 1 1 1.272 1.271l-1.906 1.905a.898.898 0 0 1-1.274 0v.001Zm9.545-9.53a.897.897 0 0 1 0-1.27l1.909-1.906a.901.901 0 0 1 1.52.64.898.898 0 0 1-.247.63l-1.91 1.906a.9.9 0 0 1-1.272 0Z"/></svg>