<svg width="64" height="76" viewBox="0 0 64 76" fill="none" xmlns="http://www.w3.org/2000/svg"><path fill="#031A16" d="M4 10h56v56H4z"/><path stroke="#AD7E37" stroke-opacity=".4" d="M4.5 10.5h55v55h-55z"/><mask id="a" fill="#fff"><path fill-rule="evenodd" clip-rule="evenodd" d="m24 12 4-12h8l4 12H24Z"/></mask><path fill-rule="evenodd" clip-rule="evenodd" d="m24 12 4-12h8l4 12H24Z" fill="#031A16"/><path d="M28 0v-1h-.72l-.229.684L28 0Zm-4 12-.949-.316L22.613 13H24v-1ZM36 0l.949-.316L36.72-1H36v1Zm4 12v1h1.387l-.438-1.316L40 12ZM27.051-.316l-4 12 1.898.632 4-12-1.898-.632ZM28 1h8v-2h-8v2Zm7.051-.684 4 12 1.898-.632-4-12-1.898.632ZM40 11h-4v2h4v-2Zm-4 0h-8v2h8v-2Zm-12 2h4v-2h-4v2Z" fill="#AD7E37" fill-opacity=".4" mask="url(#a)"/><mask id="b" fill="#fff"><path fill-rule="evenodd" clip-rule="evenodd" d="m24 64 4 12h8l4-12H24Z"/></mask><path fill-rule="evenodd" clip-rule="evenodd" d="m24 64 4 12h8l4-12H24Z" fill="#031A16"/><path d="M28 76v1h-.72l-.229-.684L28 76Zm-4-12-.949.316L22.613 63H24v1Zm12 12 .949.316-.228.684H36v-1Zm4-12v-1h1.387l-.438 1.316L40 64ZM27.051 76.316l-4-12 1.898-.632 4 12-1.898.632ZM28 75h8v2h-8v-2Zm7.051.684 4-12 1.898.632-4 12-1.898-.632ZM40 65h-4v-2h4v2Zm-4 0h-8v-2h8v2Zm-12-2h4v2h-4v-2Z" fill="#AD7E37" fill-opacity=".4" mask="url(#b)"/><mask id="c" maskUnits="userSpaceOnUse" x="0" y="6" width="64" height="64" fill="#000"><path fill="#fff" d="M0 6h64v64H0z"/><path fill-rule="evenodd" clip-rule="evenodd" d="M4 26c8.837 0 16-7.163 16-16h24c0 8.837 7.163 16 16 16v24c-8.837 0-16 7.163-16 16H20c0-8.837-7.163-16-16-16V26Z"/></mask><path fill-rule="evenodd" clip-rule="evenodd" d="M4 26c8.837 0 16-7.163 16-16h24c0 8.837 7.163 16 16 16v24c-8.837 0-16 7.163-16 16H20c0-8.837-7.163-16-16-16V26Z" fill="#00211B"/><path d="M20 10V6h-4v4h4ZM4 26v-4H0v4h4Zm40-16h4V6h-4v4Zm16 16h4v-4h-4v4Zm0 24v4h4v-4h-4ZM44 66v4h4v-4h-4Zm-24 0h-4v4h4v-4ZM4 50H0v4h4v-4Zm12-40c0 6.627-5.373 12-12 12v8c11.046 0 20-8.954 20-20h-8Zm28-4H20v8h24V6Zm16 16c-6.627 0-12-5.373-12-12h-8c0 11.046 8.954 20 20 20v-8Zm4 28V26h-8v24h8ZM48 66c0-6.627 5.373-12 12-12v-8c-11.046 0-20 8.954-20 20h8Zm-28 4h24v-8H20v8ZM4 54c6.627 0 12 5.373 12 12h8c0-11.046-8.954-20-20-20v8ZM0 26v24h8V26H0Z" fill="#00211B" mask="url(#c)"/><mask id="d" maskUnits="userSpaceOnUse" x="0" y="6" width="64" height="64" fill="#000"><path fill="#fff" d="M0 6h64v64H0z"/><path fill-rule="evenodd" clip-rule="evenodd" d="M4 26c8.837 0 16-7.163 16-16h24c0 8.837 7.163 16 16 16v24c-8.837 0-16 7.163-16 16H20c0-8.837-7.163-16-16-16V26Z"/></mask><path d="M20 10V6h-4v4h4ZM4 26v-4H0v4h4Zm40-16h4V6h-4v4Zm16 16h4v-4h-4v4Zm0 24v4h4v-4h-4ZM44 66v4h4v-4h-4Zm-24 0h-4v4h4v-4ZM4 50H0v4h4v-4Zm12-40c0 6.627-5.373 12-12 12v8c11.046 0 20-8.954 20-20h-8Zm28-4H20v8h24V6Zm16 16c-6.627 0-12-5.373-12-12h-8c0 11.046 8.954 20 20 20v-8Zm4 28V26h-8v24h8ZM48 66c0-6.627 5.373-12 12-12v-8c-11.046 0-20 8.954-20 20h8Zm-28 4h24v-8H20v8ZM4 54c6.627 0 12 5.373 12 12h8c0-11.046-8.954-20-20-20v8ZM0 26v24h8V26H0Z" fill="#000" fill-opacity=".2" mask="url(#d)"/><path d="M48 66c0-6.627 5.373-12 12-12h4v-1h-4c-7.18 0-13 5.82-13 13v4h1v-4ZM48 10c0 6.627 5.373 12 12 12h4v1h-4c-7.18 0-13-5.82-13-13V6h1v4ZM4 54c6.627 0 12 5.373 12 12v4h1v-4c0-7.18-5.82-13-13-13H0v1h4ZM16 10c0 6.627-5.373 12-12 12H0v1h4c7.18 0 13-5.82 13-13V6h-1v4ZM17 69h30v1H17zM17 6h30v1H17zM0 23h1v30H0zM63 23h1v30h-1z" fill="#AD7E37"/><mask id="f" fill="#fff"><path fill-rule="evenodd" clip-rule="evenodd" d="M4 26c8.837 0 16-7.163 16-16h24c0 8.837 7.163 16 16 16v24c-8.837 0-16 7.163-16 16H20c0-8.837-7.163-16-16-16V26Z"/></mask><path fill-rule="evenodd" clip-rule="evenodd" d="M4 26c8.837 0 16-7.163 16-16h24c0 8.837 7.163 16 16 16v24c-8.837 0-16 7.163-16 16H20c0-8.837-7.163-16-16-16V26Z" fill="url(#e)"/><path d="M20 10V9h-1v1h1ZM4 26v-1H3v1h1Zm40-16h1V9h-1v1Zm16 16h1v-1h-1v1Zm0 24v1h1v-1h-1ZM44 66v1h1v-1h-1Zm-24 0h-1v1h1v-1ZM4 50H3v1h1v-1Zm15-40c0 8.284-6.716 15-15 15v2c9.389 0 17-7.611 17-17h-2Zm25-1H20v2h24V9Zm16 16c-8.284 0-15-6.716-15-15h-2c0 9.389 7.611 17 17 17v-2Zm1 25V26h-2v24h2ZM45 66c0-8.284 6.716-15 15-15v-2c-9.389 0-17 7.611-17 17h2Zm-25 1h24v-2H20v2ZM4 51c8.284 0 15 6.716 15 15h2c0-9.389-7.611-17-17-17v2ZM3 26v24h2V26H3Z" fill="#fff" fill-opacity=".1" mask="url(#f)"/><defs><linearGradient id="e" x1="32" y1="10" x2="32" y2="66" gradientUnits="userSpaceOnUse"><stop stop-color="#003027"/><stop offset="1" stop-color="#00271F"/></linearGradient></defs></svg>