<svg width="48" height="48" viewBox="0 0 48 48" fill="none" xmlns="http://www.w3.org/2000/svg">
<path d="M18.5155 23.0452L20.8586 33.5776L36.1907 25.8149L18.5155 23.0452Z" fill="#141D22" fill-opacity="0.3"/>
<path d="M22.8718 7.30981L18.5188 23.0485L36.1907 25.8149L22.8718 7.30981Z" fill="#141D22" fill-opacity="0.3"/>
<path d="M4.15009 5L22.4252 7.18315L18.1056 22.8352L4.15009 5Z" fill="#141D22" fill-opacity="0.3"/>
<path d="M4 8.07983H6.03983L11.7494 15.3826L4 8.07983Z" fill="#141D22" fill-opacity="0.3"/>
<path d="M36.6807 25.7149L31.3644 18.3622L39.9604 16.819L36.6807 25.7149Z" fill="#141D22" fill-opacity="0.3"/>
<path d="M35.7907 27.8748L36.3306 26.2316L22.9218 33.0443L35.7907 27.8748Z" fill="#141D22" fill-opacity="0.3"/>
<path d="M18.1422 23.4618L20.9387 36.0441L12.6294 42.8002L18.1422 23.4618Z" fill="#141D22" fill-opacity="0.3"/>
<path d="M39.1204 20.5621L44 20.4821L40.4736 16.889L39.1204 20.5621Z" fill="#141D22" fill-opacity="0.3"/>
</svg>
