<svg width="48" height="48" viewBox="0 0 48 48" fill="none" xmlns="http://www.w3.org/2000/svg">
<path fill-rule="evenodd" clip-rule="evenodd" d="M24 42C33.9411 42 42 33.9411 42 24C42 14.0589 33.9411 6 24 6C14.0589 6 6 14.0589 6 24C6 33.9411 14.0589 42 24 42ZM16.5858 18.5858C16.9609 18.2107 17.4696 18 18 18H30C30.5304 18 31.0391 18.2107 31.4142 18.5858C31.7893 18.9609 32 19.4696 32 20V21H16V20C16 19.4696 16.2107 18.9609 16.5858 18.5858ZM34 20V22V28C34 29.0609 33.5786 30.0783 32.8284 30.8284C32.0783 31.5786 31.0609 32 30 32H18C16.9391 32 15.9217 31.5786 15.1716 30.8284C14.4214 30.0783 14 29.0609 14 28V22V20C14 18.9391 14.4214 17.9217 15.1716 17.1716C15.9217 16.4214 16.9391 16 18 16H30C31.0609 16 32.0783 16.4214 32.8284 17.1716C33.5786 17.9217 34 18.9391 34 20ZM16 28V23H32V28C32 28.5304 31.7893 29.0391 31.4142 29.4142C31.0391 29.7893 30.5304 30 30 30H18C17.4696 30 16.9609 29.7893 16.5858 29.4142C16.2107 29.0391 16 28.5304 16 28ZM19 26C18.4477 26 18 26.4477 18 27C18 27.5523 18.4477 28 19 28H19.01C19.5623 28 20.01 27.5523 20.01 27C20.01 26.4477 19.5623 26 19.01 26H19ZM23 26C22.4477 26 22 26.4477 22 27C22 27.5523 22.4477 28 23 28H25C25.5523 28 26 27.5523 26 27C26 26.4477 25.5523 26 25 26H23Z" fill="#141D22" fill-opacity="0.3"/>
</svg>
