<svg width="48" height="48" viewBox="0 0 48 48" fill="none" xmlns="http://www.w3.org/2000/svg">
<path fill-rule="evenodd" clip-rule="evenodd" d="M24.1921 19.2503C23.0122 19.1731 20.2806 18.9976 20.2806 16.5525C20.2806 13.6021 24.2134 13.6021 25.6885 13.6021C28.2821 13.6021 31.6412 14.3642 34.0401 15.0776C34.0401 15.0776 35.3782 15.5466 36.517 16.027L36.6228 16.0555V7.97501L36.4774 7.93223C33.6464 6.94743 30.3546 6 24.2515 6C13.7285 6 10 12.0951 10 17.3166C10 20.3265 11.2976 27.4104 23.349 28.2276C24.3706 28.29 27.082 28.4454 27.082 30.972C27.082 33.0581 24.8622 34.2883 21.1287 34.2883C17.0372 34.2883 13.0684 33.2509 10.6577 32.2671V40.5894C14.2665 41.53 18.3348 42 23.1027 42C33.3918 42 38 36.2333 38 30.5177C38 24.0371 32.8434 19.8265 24.1921 19.2503Z" fill="#141D22" fill-opacity="0.3"/>
</svg>
