<svg width="48" height="48" viewBox="0 0 48 48" fill="none" xmlns="http://www.w3.org/2000/svg">
<path fill-rule="evenodd" clip-rule="evenodd" d="M32 20C33.4013 20 34.7465 20.2402 35.9967 20.6817C35.8273 12.5444 29.1779 6 21 6C12.7157 6 6 12.7157 6 21C6 29.1779 12.5444 35.8273 20.6817 35.9967C20.2402 34.7465 20 33.4013 20 32C20 31.3665 20.0491 30.7445 20.1437 30.1375H18.9133V22.9944C14.7703 22.8015 11.652 21.9815 11.652 20.9976C11.652 20.0137 14.7678 19.1938 18.9133 19.0033V16.7749H13.8128V13.377H27.6987V16.7749H22.5982V19.0033L22.6006 19.0057C25.709 19.1488 28.2377 19.6483 29.3039 20.3041C30.1705 20.1051 31.073 20 32 20ZM24.1936 22.886C23.6116 23.385 23.0779 23.9387 22.6006 24.5393V22.9944C23.1514 22.9691 23.6841 22.9325 24.1936 22.886ZM25.0931 22.1858C26.1904 21.4121 27.4232 20.8179 28.7489 20.4456C28.0195 19.8579 25.6287 19.3972 22.5982 19.2612V21.75C22.4921 21.7597 21.9229 21.8079 20.7847 21.8079C19.8369 21.8079 19.1497 21.7669 18.9109 21.75V19.2588C15.2501 19.4204 12.5154 20.0595 12.5154 20.8216C12.5154 21.586 15.2477 22.2227 18.9109 22.3843V22.3818C19.1473 22.3939 19.8152 22.4204 20.7678 22.4204C21.9591 22.4204 22.4945 22.3891 22.5982 22.3818V22.3843V22.3867C23.4944 22.3464 24.3349 22.2778 25.0931 22.1858ZM32 42C37.5228 42 42 37.5228 42 32C42 26.4772 37.5228 22 32 22C26.4772 22 22 26.4772 22 32C22 37.5228 26.4772 42 32 42ZM38.5704 29.0394L38.2764 28.8339L38.2754 28.8332C37.7956 28.4978 37.2949 28.1478 36.8032 27.8001C36.7901 27.7902 36.777 27.7804 36.7606 27.7706C36.695 27.7214 36.6196 27.6689 36.5278 27.6394L36.5213 27.6361C35.0742 27.2863 33.6054 26.9284 32.1743 26.5797L32.173 26.5793L31.7606 26.4788C31.0936 26.3167 30.4273 26.1546 29.7611 25.9924C29.0125 25.8103 28.2641 25.6281 27.5147 25.446C27.4786 25.4361 27.4426 25.4263 27.4032 25.4165C27.2754 25.3804 27.1278 25.341 26.9704 25.3607C26.9245 25.3673 26.8852 25.3837 26.8491 25.4066L26.8098 25.4394C26.7475 25.4984 26.7147 25.5738 26.6983 25.6165L26.6885 25.6427V25.7935L26.695 25.8165C27.3708 27.7102 28.0596 29.6244 28.7376 31.5084L28.7392 31.5129C28.9587 32.1228 29.177 32.7294 29.3934 33.3312L29.9985 35.012L29.9992 35.014C30.4894 36.3754 30.9865 37.7557 31.4754 39.1181C31.518 39.2492 31.6393 39.3345 31.7901 39.3476H31.8229C31.9639 39.3476 32.0885 39.2788 32.1508 39.1673L34.7475 35.3804C35.0632 34.9208 35.3789 34.4603 35.6946 33.9998L35.6968 33.9966C36.0132 33.5352 36.3295 33.0738 36.6459 32.6132C36.7734 32.4276 36.9009 32.2412 37.0284 32.0548C37.1599 31.8625 37.2914 31.6702 37.4229 31.4788L37.4568 31.4292L37.4569 31.4291C37.8724 30.8217 38.3001 30.1966 38.7245 29.587L38.7475 29.5542V29.5148C38.7573 29.4001 38.7606 29.164 38.5704 29.0394ZM35.5278 30.4197C35.3057 30.5356 35.0819 30.6527 34.8568 30.7705C34.4638 30.9762 34.0669 31.1838 33.6688 31.3902L34.7639 30.2165C35.1608 29.7882 35.5726 29.3474 35.9799 28.9115L35.9808 28.9106L36.1606 28.7181L36.1704 28.7083C36.2098 28.6558 36.259 28.6066 36.3114 28.5543L36.3114 28.5542L36.3384 28.5276C36.3666 28.5 36.3956 28.4716 36.4229 28.4394C36.6655 28.6066 36.9114 28.7771 37.1475 28.9443C37.318 29.0656 37.4918 29.187 37.6688 29.3083C36.9475 29.6755 36.2262 30.0525 35.5278 30.4197ZM33.9606 30.2624C33.4918 30.7706 33.0065 31.2919 32.5245 31.8066C31.5901 30.6722 30.636 29.5214 29.7114 28.4099L29.0272 27.5872L28.4491 26.8919L28.4459 26.8886C28.3811 26.8149 28.3179 26.7367 28.2551 26.6591L28.2551 26.6591C28.2257 26.6227 28.1965 26.5865 28.1672 26.5509C28.1263 26.4988 28.0839 26.4482 28.0411 26.397C28.022 26.3741 28.0028 26.3512 27.9836 26.3279C28.3639 26.4263 28.7475 26.5181 29.1245 26.6066C29.4557 26.6853 29.8 26.7673 30.1377 26.8525C31.1041 27.0875 32.0713 27.3224 33.0385 27.5573C33.9746 27.7847 34.9106 28.0121 35.8459 28.2394C35.3545 28.7639 34.8611 29.2943 34.3766 29.8153L34.3759 29.816L33.9606 30.2624ZM32.341 36.3731L32.3411 36.3722C32.3682 36.1178 32.3956 35.8605 32.4196 35.6066L32.449 35.3272C32.4687 35.1397 32.4884 34.9523 32.5081 34.7706L32.5292 34.5709C32.5687 34.1973 32.6092 33.8148 32.6426 33.4394L32.6524 33.3607C32.6852 33.0788 32.718 32.787 32.7377 32.4951C32.7737 32.4755 32.8131 32.4558 32.8557 32.4394C32.8677 32.4338 32.8797 32.4284 32.8917 32.423L32.8919 32.423C32.929 32.4063 32.9661 32.3896 33.0032 32.3673L33.0455 32.3451L33.0467 32.3445C33.7896 31.9554 34.5325 31.5663 35.2786 31.1804C36.036 30.787 36.8131 30.3804 37.5836 29.9771C36.8819 30.9935 36.177 32.0197 35.495 33.0197L35.1096 33.5819C34.6456 34.2589 34.1743 34.9466 33.7049 35.6263C33.5721 35.8217 33.4363 36.0192 33.3014 36.2153L33.301 36.2158L33.3006 36.2165C33.1958 36.3687 33.0917 36.5201 32.9901 36.6689C32.7278 37.0492 32.459 37.4394 32.1967 37.8296C32.2295 37.4361 32.2688 37.0394 32.3114 36.6525C32.3211 36.56 32.331 36.4668 32.341 36.3731ZM27.7409 27.1017C27.7268 27.0626 27.7123 27.0232 27.6978 26.9837L27.6978 26.9836C27.6686 26.904 27.6393 26.8243 27.6131 26.7476C28.4983 27.8165 29.3901 28.8919 30.259 29.9345C30.4128 30.1198 30.5666 30.3047 30.7205 30.4897L30.7235 30.4933L30.7235 30.4933C31.0178 30.847 31.3121 31.2008 31.6065 31.5574C31.695 31.6591 31.7836 31.7673 31.8688 31.8722C31.898 31.9075 31.9273 31.9432 31.9567 31.9791C32.0394 32.0802 32.1236 32.1829 32.2131 32.282C32.1893 32.4857 32.168 32.6906 32.1468 32.8931L32.1468 32.8931L32.1468 32.8933C32.1329 33.0265 32.1192 33.1586 32.1049 33.2886L32.1028 33.3098L32.1028 33.3098C32.0805 33.5323 32.0582 33.7548 32.0327 33.9804V33.9837C32.0251 34.0978 32.0116 34.212 31.9983 34.3246L31.9983 34.3246L31.9868 34.423C31.9639 34.623 31.9114 35.0755 31.9114 35.0755L31.9081 35.0984C31.8539 35.7065 31.7887 36.3202 31.725 36.9191L31.7081 37.0788C31.692 37.2256 31.6768 37.3743 31.6616 37.524C31.649 37.6484 31.6363 37.7734 31.6229 37.8984C31.6128 37.8682 31.6015 37.838 31.5905 37.8086C31.5835 37.7901 31.5767 37.7719 31.5704 37.7542C31.5213 37.623 31.4721 37.4853 31.4262 37.3509L31.0754 36.3771L29.9629 33.2834C29.2222 31.2238 28.4816 29.1642 27.7409 27.1017Z" fill="#141D22" fill-opacity="0.3"/>
</svg>
